<mxfile host="Electron" agent="Mozilla/5.0 (Macintosh; Intel Mac OS X 10_15_7) AppleWebKit/537.36 (KHTML, like Gecko) draw.io/27.0.9 Chrome/134.0.6998.205 Electron/35.4.0 Safari/537.36" version="27.0.9">
  <diagram name="페이지-1" id="4VMYPhz8zPWPb6PeeNIh">
    <mxGraphModel dx="1131" dy="1018" grid="1" gridSize="10" guides="1" tooltips="1" connect="1" arrows="1" fold="1" page="1" pageScale="1" pageWidth="827" pageHeight="1169" math="0" shadow="0">
      <root>
        <mxCell id="0" />
        <mxCell id="1" parent="0" />
        <mxCell id="GOJ_hUimyXIJ9WccpclX-1" value="Chat AI" style="rounded=0;whiteSpace=wrap;html=1;fontSize=18;fontStyle=1" vertex="1" parent="1">
          <mxGeometry x="120" y="160" width="120" height="40" as="geometry" />
        </mxCell>
        <mxCell id="GOJ_hUimyXIJ9WccpclX-5" style="edgeStyle=orthogonalEdgeStyle;rounded=0;orthogonalLoop=1;jettySize=auto;html=1;entryX=0.5;entryY=0;entryDx=0;entryDy=0;" edge="1" parent="1" source="GOJ_hUimyXIJ9WccpclX-2" target="GOJ_hUimyXIJ9WccpclX-4">
          <mxGeometry relative="1" as="geometry" />
        </mxCell>
        <mxCell id="GOJ_hUimyXIJ9WccpclX-2" value="Input User Chat&lt;div&gt;(Flutter App)&lt;/div&gt;" style="ellipse;whiteSpace=wrap;html=1;fontStyle=1;fontSize=14;" vertex="1" parent="1">
          <mxGeometry x="90" y="250" width="180" height="60" as="geometry" />
        </mxCell>
        <mxCell id="GOJ_hUimyXIJ9WccpclX-7" style="edgeStyle=orthogonalEdgeStyle;rounded=0;orthogonalLoop=1;jettySize=auto;html=1;entryX=0.5;entryY=0;entryDx=0;entryDy=0;" edge="1" parent="1" source="GOJ_hUimyXIJ9WccpclX-4" target="GOJ_hUimyXIJ9WccpclX-6">
          <mxGeometry relative="1" as="geometry" />
        </mxCell>
        <mxCell id="GOJ_hUimyXIJ9WccpclX-4" value="FastAPI" style="ellipse;whiteSpace=wrap;html=1;fontStyle=1;fontSize=14;" vertex="1" parent="1">
          <mxGeometry x="90" y="370" width="180" height="60" as="geometry" />
        </mxCell>
        <mxCell id="GOJ_hUimyXIJ9WccpclX-6" value="LLM Supervisor&lt;div&gt;(llama 3)&lt;/div&gt;" style="rounded=1;whiteSpace=wrap;html=1;fontStyle=1;fontSize=15;" vertex="1" parent="1">
          <mxGeometry x="100" y="490" width="160" height="60" as="geometry" />
        </mxCell>
        <mxCell id="GOJ_hUimyXIJ9WccpclX-8" value="OCR AI" style="rounded=0;whiteSpace=wrap;html=1;fontSize=18;fontStyle=1" vertex="1" parent="1">
          <mxGeometry x="520" y="160" width="120" height="40" as="geometry" />
        </mxCell>
        <mxCell id="GOJ_hUimyXIJ9WccpclX-11" style="edgeStyle=orthogonalEdgeStyle;rounded=0;orthogonalLoop=1;jettySize=auto;html=1;entryX=0.5;entryY=0;entryDx=0;entryDy=0;" edge="1" parent="1" source="GOJ_hUimyXIJ9WccpclX-9" target="GOJ_hUimyXIJ9WccpclX-10">
          <mxGeometry relative="1" as="geometry" />
        </mxCell>
        <mxCell id="GOJ_hUimyXIJ9WccpclX-9" value="Input Menu Image&lt;div&gt;(Fast API)&lt;/div&gt;" style="ellipse;whiteSpace=wrap;html=1;fontStyle=1;fontSize=14;" vertex="1" parent="1">
          <mxGeometry x="490" y="250" width="180" height="60" as="geometry" />
        </mxCell>
        <mxCell id="GOJ_hUimyXIJ9WccpclX-10" value="OCR AI" style="rounded=1;whiteSpace=wrap;html=1;fontStyle=1;fontSize=15;" vertex="1" parent="1">
          <mxGeometry x="500" y="370" width="160" height="60" as="geometry" />
        </mxCell>
      </root>
    </mxGraphModel>
  </diagram>
</mxfile>
